<svg width="91" height="30" viewBox="0 0 91 30" fill="none" xmlns="http://www.w3.org/2000/svg">
<g clip-path="url(#clip0_2005_1617)">
<mask id="mask0_2005_1617" style="mask-type:luminance" maskUnits="userSpaceOnUse" x="0" y="0" width="91" height="30">
<path d="M0.625977 0H90.374V30H0.625977V0Z" fill="white"/>
</mask>
<g mask="url(#mask0_2005_1617)">
<path d="M83.2273 9.75e-05H7.77699C7.50196 9.75e-05 7.23024 9.74999e-05 6.95594 0.0015975C6.72633 0.0030975 6.49854 0.007455 6.26673 0.0111225C5.76311 0.0170489 5.26068 0.0613547 4.7638 0.143655C4.26762 0.227746 3.78698 0.386284 3.33814 0.613905C2.88985 0.843451 2.48024 1.14172 2.12415 1.4979C1.7662 1.85308 1.46782 2.26361 1.24049 2.71372C1.01253 3.16293 0.854457 3.6443 0.771739 4.14121C0.688235 4.63749 0.6433 5.13949 0.637339 5.64271C0.630379 5.87266 0.629644 6.10337 0.625977 6.33335V23.669C0.629644 23.9019 0.630379 24.1275 0.637339 24.3604C0.643302 24.8637 0.688236 25.3657 0.771739 25.8619C0.854229 26.3591 1.01231 26.8408 1.24049 27.2901C1.46772 27.7387 1.76614 28.1476 2.12415 28.5008C2.47888 28.8586 2.88876 29.1571 3.33814 29.3848C3.78698 29.6131 4.26756 29.7726 4.7638 29.858C5.26077 29.9396 5.76315 29.984 6.26673 29.9906C6.49854 29.9957 6.72633 29.9986 6.95594 29.9986C7.23023 30.0001 7.50198 30.0001 7.77699 30.0001H83.2273C83.4965 30.0001 83.7703 30.0001 84.0403 29.9986C84.2683 29.9986 84.503 29.9957 84.7317 29.9906C85.2342 29.9843 85.7352 29.94 86.2317 29.858C86.729 29.772 87.2113 29.6125 87.6628 29.3848C88.1113 29.1569 88.5207 28.8585 88.8755 28.5008C89.2325 28.1463 89.5317 27.7377 89.762 27.2901C89.9885 26.8404 90.1445 26.3588 90.2263 25.8619C90.3095 25.3656 90.356 24.8637 90.365 24.3604C90.368 24.1275 90.368 23.9019 90.368 23.669C90.374 23.3966 90.374 23.1256 90.374 22.8487V7.15219C90.374 6.87754 90.374 6.60508 90.368 6.33335C90.368 6.10337 90.368 5.87266 90.365 5.64268C90.356 5.13941 90.3095 4.63753 90.2263 4.14118C90.1445 3.64456 89.9877 3.16322 89.762 2.71369C89.2985 1.8115 88.565 1.07712 87.6628 0.613837C87.2113 0.386773 86.729 0.228278 86.2317 0.143587C85.736 0.0609248 85.2342 0.0166035 84.7317 0.0110175C84.503 0.0073575 84.2683 0.0029625 84.0403 0.0015C83.7703 0 83.4965 9.75e-05 83.2273 9.75e-05Z" fill="#A6A6A6"/>
<path d="M6.95963 29.3437C6.73112 29.3437 6.50813 29.3408 6.28141 29.3357C5.81175 29.3296 5.34318 29.2887 4.87955 29.2134C4.44725 29.1389 4.02845 29.0005 3.637 28.8025C3.24913 28.6061 2.89536 28.3487 2.58925 28.04C2.2787 27.735 2.02016 27.3811 1.82387 26.9926C1.6254 26.6016 1.48806 26.1824 1.41662 25.7497C1.33946 25.2848 1.29771 24.8147 1.29174 24.3435C1.28699 24.1853 1.28076 23.6587 1.28076 23.6587V6.33325C1.28076 6.33325 1.28739 5.8147 1.29178 5.66235C1.2975 5.19186 1.339 4.72249 1.41593 4.2583C1.4875 3.82444 1.62495 3.40406 1.82352 3.01172C2.01909 2.62346 2.2762 2.26939 2.58488 1.96326C2.8932 1.65421 3.2481 1.39545 3.63663 1.19641C4.02719 0.999067 4.44519 0.861546 4.87662 0.788452C5.34177 0.712377 5.81196 0.671247 6.28325 0.665408L6.95999 0.65625H84.0365L84.7212 0.665775C85.1885 0.671324 85.6542 0.712087 86.1147 0.787717C86.5505 0.861735 86.9735 1.00021 87.368 1.1986C88.1465 1.59974 88.7802 2.23437 89.1792 3.01355C89.375 3.40318 89.51 3.82013 89.5805 4.25024C89.6585 4.71824 89.702 5.1913 89.711 5.66565C89.7132 5.87805 89.7132 6.1062 89.7132 6.33325C89.7192 6.6145 89.7192 6.8822 89.7192 7.1521V22.8486C89.7192 23.1211 89.7192 23.3869 89.7132 23.655C89.7132 23.8989 89.7132 24.1223 89.7102 24.3523C89.702 24.8182 89.6585 25.2828 89.582 25.7424C89.5122 26.1782 89.3757 26.6006 89.177 26.9949C88.9797 27.3792 88.7225 27.73 88.4157 28.0342C88.109 28.3445 87.755 28.6034 87.3657 28.801C86.972 29.0005 86.5505 29.1395 86.1147 29.2134C85.6512 29.2891 85.1825 29.33 84.713 29.3357C84.4932 29.3408 84.2637 29.3437 84.0402 29.3437L83.2272 29.3452L6.95963 29.3437Z" fill="black"/>
<path d="M19.2028 15.226C19.2108 14.6 19.3771 13.9862 19.6861 13.4417C19.9951 12.8973 20.4368 12.4398 20.9701 12.1119C20.6314 11.6281 20.1844 11.2298 19.6648 10.949C19.1452 10.668 18.5672 10.5122 17.9768 10.4937C16.7173 10.3615 15.4964 11.2473 14.8546 11.2473C14.2004 11.2473 13.2123 10.5068 12.1483 10.5287C11.46 10.5509 10.7892 10.7511 10.2013 11.1096C9.61342 11.4682 9.12839 11.9728 8.79352 12.5746C7.34305 15.0859 8.42497 18.7767 9.81442 20.8067C10.5096 21.8007 11.3221 22.911 12.3852 22.8716C13.4254 22.8285 13.814 22.2083 15.0697 22.2083C16.3138 22.2083 16.6783 22.8716 17.763 22.8466C18.8793 22.8285 19.5826 21.8482 20.2534 20.8447C20.7529 20.1364 21.1372 19.3537 21.3922 18.5254C20.7436 18.251 20.1902 17.7919 19.8009 17.2052C19.4115 16.6185 19.2035 15.9302 19.2028 15.226ZM17.154 9.15847C17.7626 8.42782 18.0625 7.48871 17.9899 6.54053C17.06 6.63819 16.201 7.08261 15.5842 7.78522C15.2826 8.1285 15.0516 8.5278 14.9044 8.9604C14.7572 9.393 14.6968 9.85028 14.7264 10.3063C15.1915 10.3111 15.6517 10.2103 16.0721 10.0115C16.4926 9.81263 16.8625 9.52095 17.154 9.15847ZM32.3529 20.3548H28.8028L27.9502 22.8721H26.4466L29.8092 13.5586H31.3714L34.734 22.8721H33.2047L32.3529 20.3548ZM29.1705 19.1931H31.9845L30.5973 15.1077H30.5584L29.1705 19.1931ZM41.9959 19.4771C41.9959 21.5872 40.8666 22.9429 39.1622 22.9429C38.7305 22.9655 38.3011 22.8661 37.9232 22.6559C37.5454 22.4458 37.2343 22.1336 37.0258 21.7549H36.9935V25.1182H35.5997V16.0816H36.9488V17.211H36.9745C37.1927 16.8341 37.509 16.5235 37.8897 16.3121C38.2704 16.1007 38.7013 15.9965 39.1366 16.0106C40.8599 16.0106 41.9959 17.3728 41.9959 19.4771ZM40.5634 19.4771C40.5634 18.1024 39.8529 17.1986 38.7689 17.1986C37.7039 17.1986 36.9877 18.1213 36.9877 19.4771C36.9877 20.8453 37.7039 21.7615 38.7689 21.7615C39.8529 21.7615 40.5634 20.8643 40.5634 19.4771ZM49.4696 19.4771C49.4696 21.5872 48.3402 22.9429 46.6358 22.9429C46.2041 22.9654 45.7747 22.866 45.3969 22.6559C45.019 22.4458 44.708 22.1336 44.4994 21.7549H44.4671V25.1182H43.0733V16.0816H44.4224V17.211H44.4481C44.6663 16.8341 44.9826 16.5235 45.3633 16.3121C45.7441 16.1007 46.1749 15.9965 46.6102 16.0106C48.3336 16.0106 49.4696 17.3729 49.4696 19.4771ZM48.037 19.4771C48.037 18.1023 47.3265 17.1986 46.2425 17.1986C45.1776 17.1986 44.4613 18.1214 44.4613 19.4771C44.4613 20.8453 45.1776 21.7615 46.2425 21.7615C47.3265 21.7615 48.037 20.8643 48.037 19.4771ZM54.409 20.2771C54.5123 21.2007 55.4095 21.8072 56.6356 21.8072C57.8104 21.8072 58.6556 21.2007 58.6556 20.3679C58.6556 19.645 58.1458 19.2121 56.9388 18.9155L55.7318 18.6248C54.0216 18.2117 53.2276 17.4118 53.2276 16.114C53.2276 14.5071 54.628 13.4033 56.6166 13.4033C58.5846 13.4033 59.9337 14.5071 59.9791 16.114H58.5721C58.4879 15.1846 57.7195 14.6236 56.5968 14.6236C55.474 14.6236 54.7057 15.1912 54.7057 16.0174C54.7057 16.6758 55.1964 17.0632 56.3968 17.3599L57.4229 17.6118C59.3338 18.0637 60.1278 18.8313 60.1278 20.1936C60.1278 21.936 58.7398 23.0273 56.5323 23.0273C54.4669 23.0273 53.0723 21.9617 52.9822 20.2771L54.409 20.2771ZM63.1358 14.4749V16.0818H64.4271V17.1856H63.1358V20.929C63.1358 21.5105 63.3943 21.7815 63.962 21.7815C64.1153 21.7788 64.2683 21.7681 64.4205 21.7493V22.8464C64.1653 22.8941 63.9059 22.9157 63.6463 22.9109C62.2716 22.9109 61.7354 22.3945 61.7354 21.0776V17.1856H60.7481V16.0818H61.7354V14.4749H63.1358ZM65.1749 19.4773C65.1749 17.3408 66.4332 15.9983 68.3953 15.9983C70.3641 15.9983 71.6165 17.3408 71.6165 19.4773C71.6165 21.6196 70.3707 22.9563 68.3953 22.9563C66.4207 22.9563 65.1749 21.6196 65.1749 19.4773ZM70.1964 19.4773C70.1964 18.0117 69.5248 17.1467 68.3953 17.1467C67.2659 17.1467 66.595 18.0183 66.595 19.4773C66.595 20.9487 67.2659 21.8072 68.3953 21.8072C69.5248 21.8072 70.1964 20.9487 70.1964 19.4773ZM72.7657 16.0815H74.095V17.2372H74.1273C74.2172 16.8763 74.4287 16.5573 74.7262 16.3339C75.0236 16.1104 75.3889 15.9963 75.7603 16.0105C75.9215 16.0099 76.0813 16.0273 76.238 16.0624V17.3662C76.0355 17.3042 75.824 17.2757 75.6118 17.282C75.4094 17.2737 75.2075 17.3094 75.0202 17.3866C74.8328 17.4638 74.6643 17.5806 74.5264 17.7289C74.3884 17.8774 74.2841 18.0539 74.2208 18.2464C74.1575 18.4389 74.1366 18.6428 74.1595 18.8442V22.8718H72.7657L72.7657 16.0815ZM82.664 20.8777C82.4765 22.1104 81.2765 22.9563 79.7405 22.9563C77.765 22.9563 76.5388 21.6328 76.5388 19.5095C76.5388 17.3797 77.7718 15.9983 79.682 15.9983C81.5608 15.9983 82.742 17.2888 82.742 19.3477V19.8252H77.9458V19.9094C77.924 20.1593 77.9555 20.4111 78.038 20.6479C78.1205 20.8848 78.2525 21.1014 78.4258 21.2833C78.5983 21.4652 78.8075 21.6083 79.04 21.7031C79.2725 21.7978 79.5223 21.842 79.7728 21.8327C80.102 21.8636 80.4328 21.7873 80.7155 21.6152C80.9975 21.4432 81.2173 21.1845 81.341 20.8777H82.664ZM77.9525 18.8511H81.3478C81.3598 18.6264 81.326 18.4016 81.2473 18.1906C81.1693 17.9797 81.0478 17.7873 80.891 17.6255C80.735 17.4637 80.5468 17.3359 80.3383 17.2502C80.1305 17.1646 79.907 17.1229 79.682 17.1277C79.4548 17.1263 79.2298 17.17 79.0198 17.256C78.8098 17.342 78.6193 17.4688 78.458 17.629C78.2975 17.7893 78.17 17.9798 78.083 18.1895C77.9968 18.3992 77.9518 18.6241 77.9525 18.8511ZM28.9956 6.54854C29.2879 6.52757 29.581 6.57171 29.8541 6.67778C30.1272 6.78386 30.3733 6.94922 30.5748 7.16194C30.7762 7.37466 30.928 7.62945 31.019 7.90785C31.1101 8.18633 31.1382 8.48153 31.1014 8.77215C31.1014 10.2019 30.3286 11.0237 28.9956 11.0237H27.3792V6.54854H28.9956ZM28.0742 10.3908H28.918C29.1268 10.4032 29.3357 10.3691 29.5297 10.2906C29.7235 10.2121 29.8975 10.0914 30.0389 9.9372C30.1803 9.78308 30.2854 9.59933 30.3469 9.3993C30.4083 9.19935 30.4243 8.98822 30.3938 8.7813C30.4221 8.57512 30.4044 8.36535 30.3421 8.16683C30.2797 7.9683 30.1743 7.78605 30.0332 7.63312C29.8922 7.48018 29.719 7.36034 29.5262 7.28216C29.3334 7.20398 29.1257 7.16941 28.918 7.18094H28.0742V10.3908ZM31.8865 9.3336C31.8653 9.11168 31.8907 8.88773 31.9611 8.67615C32.0314 8.46465 32.1452 8.2701 32.2952 8.1051C32.4451 7.9401 32.6279 7.80833 32.8318 7.7181C33.0357 7.62788 33.2562 7.5813 33.4792 7.5813C33.7021 7.5813 33.9226 7.62788 34.1265 7.7181C34.3304 7.80833 34.5132 7.9401 34.6631 8.1051C34.8131 8.2701 34.9269 8.46465 34.9973 8.67615C35.0677 8.88773 35.093 9.11168 35.0718 9.3336C35.0935 9.55575 35.0683 9.78 34.9981 9.99188C34.928 10.2038 34.8142 10.3986 34.6642 10.564C34.5142 10.7293 34.3313 10.8613 34.1272 10.9517C33.9232 11.0422 33.7024 11.0888 33.4792 11.0888C33.256 11.0888 33.0352 11.0422 32.8311 10.9517C32.627 10.8613 32.4441 10.7293 32.2941 10.564C32.1441 10.3986 32.0304 10.2038 31.9602 9.99188C31.89 9.78 31.8649 9.55575 31.8865 9.3336ZM34.3863 9.3336C34.3863 8.60153 34.0574 8.17342 33.4803 8.17342C32.9009 8.17342 32.575 8.60153 32.575 9.3336C32.575 10.0715 32.9009 10.4963 33.4803 10.4963C34.0574 10.4963 34.3863 10.0686 34.3863 9.3336ZM39.3059 11.0237H38.6145L37.9165 8.53635H37.8638L37.1687 11.0237H36.4839L35.553 7.64648H36.229L36.834 10.2235H36.8838L37.5781 7.64648H38.2175L38.9119 10.2235H38.9646L39.5667 7.64648H40.2331L39.3059 11.0237ZM41.0161 7.64617H41.6578V8.18265H41.7076C41.792 7.98998 41.9345 7.82842 42.1152 7.72057C42.2959 7.61272 42.5056 7.5639 42.7153 7.58092C42.8797 7.56862 43.0447 7.59338 43.1981 7.65345C43.3516 7.71353 43.4896 7.80735 43.6018 7.92802C43.714 8.04862 43.7977 8.193 43.8466 8.35035C43.8955 8.5077 43.9084 8.67405 43.8843 8.83702V11.0233H43.2178V9.00443C43.2178 8.46173 42.982 8.1918 42.4891 8.1918C42.3775 8.18663 42.2661 8.2056 42.1625 8.24745C42.059 8.28938 41.9657 8.35313 41.8891 8.43443C41.8126 8.51573 41.7544 8.61255 41.7188 8.71845C41.6831 8.82428 41.6708 8.93655 41.6827 9.04763V11.0233H41.0161V7.64617ZM44.9463 6.32812H45.6128V11.0237H44.9463V6.32812ZM46.5394 9.33367C46.5181 9.11167 46.5435 8.88773 46.6139 8.67623C46.6843 8.46465 46.7981 8.2701 46.9481 8.1051C47.0981 7.94017 47.2809 7.80833 47.4848 7.7181C47.6887 7.62788 47.9092 7.5813 48.1321 7.5813C48.3551 7.5813 48.5756 7.62788 48.7795 7.7181C48.9835 7.80833 49.1662 7.94017 49.3162 8.1051C49.4662 8.2701 49.58 8.46465 49.6504 8.67623C49.7208 8.88773 49.7462 9.11167 49.725 9.33367C49.7466 9.55582 49.7215 9.78008 49.6513 9.99195C49.5811 10.2038 49.4673 10.3987 49.3173 10.564C49.1673 10.7294 48.9844 10.8614 48.7802 10.9518C48.5761 11.0422 48.3554 11.0889 48.1321 11.0889C47.9089 11.0889 47.6882 11.0422 47.4841 10.9518C47.28 10.8614 47.0971 10.7294 46.9471 10.564C46.7971 10.3987 46.6833 10.2038 46.613 9.99195C46.5428 9.78008 46.5177 9.55582 46.5394 9.33367ZM49.0391 9.33367C49.0391 8.6016 48.7102 8.1735 48.1331 8.1735C47.5537 8.1735 47.2279 8.6016 47.2279 9.33367C47.2279 10.0716 47.5537 10.4964 48.1331 10.4964C48.7102 10.4964 49.0391 10.0686 49.0391 9.33367ZM50.4266 10.0686C50.4266 9.46065 50.8793 9.11025 51.6827 9.06045L52.5976 9.00765V8.7162C52.5976 8.3595 52.3617 8.15805 51.9061 8.15805C51.5341 8.15805 51.2763 8.2947 51.2023 8.53343H50.557C50.6251 7.95338 51.1708 7.5813 51.9369 7.5813C52.7836 7.5813 53.2611 8.0028 53.2611 8.7162V11.0237H52.6195V10.5491H52.5668C52.4597 10.7193 52.3094 10.8581 52.1312 10.9513C51.953 11.0444 51.7533 11.0886 51.5524 11.0793C51.4106 11.0941 51.2673 11.0789 51.1318 11.0349C50.9962 10.9909 50.8714 10.9189 50.7652 10.8237C50.6592 10.7285 50.5743 10.6121 50.5159 10.4821C50.4577 10.3519 50.4272 10.2112 50.4266 10.0686ZM52.5976 9.78V9.4977L51.7729 9.55043C51.3077 9.58155 51.0968 9.73972 51.0968 10.0375C51.0968 10.3414 51.3605 10.5183 51.7231 10.5183C51.8293 10.529 51.9366 10.5183 52.0386 10.4867C52.1406 10.4552 52.2352 10.4034 52.3168 10.3345C52.3984 10.2657 52.4653 10.1811 52.5136 10.0858C52.5618 9.99052 52.5904 9.88657 52.5976 9.78ZM54.1371 9.3336C54.1371 8.2665 54.6857 7.59045 55.539 7.59045C55.75 7.58077 55.9595 7.63132 56.1429 7.73625C56.3263 7.8411 56.476 7.99612 56.5746 8.18295H56.6244V6.32812H57.2909V11.0237H56.6522V10.4901H56.5995C56.4933 10.6757 56.3383 10.8287 56.1514 10.9326C55.9645 11.0365 55.7527 11.0872 55.539 11.0793C54.6799 11.0794 54.1371 10.4033 54.1371 9.3336ZM54.8256 9.3336C54.8256 10.0499 55.1632 10.4809 55.7279 10.4809C56.2897 10.4809 56.6369 10.0437 56.6369 9.33652C56.6369 8.63272 56.2861 8.18925 55.7279 8.18925C55.1669 8.18925 54.8256 8.6232 54.8256 9.3336ZM60.0485 9.3336C60.0273 9.11168 60.0526 8.88773 60.1231 8.67615C60.1934 8.46465 60.3073 8.2701 60.4572 8.1051C60.6071 7.9401 60.79 7.80833 60.9938 7.7181C61.1977 7.62788 61.4182 7.5813 61.6411 7.5813C61.8641 7.5813 62.0846 7.62788 62.2885 7.7181C62.4924 7.80833 62.6752 7.9401 62.8251 8.1051C62.9751 8.2701 63.0889 8.46465 63.1593 8.67615C63.2296 8.88773 63.2551 9.11168 63.2338 9.3336C63.2554 9.55575 63.2303 9.78 63.1602 9.99188C63.09 10.2038 62.9762 10.3986 62.8262 10.564C62.6762 10.7293 62.4933 10.8613 62.2892 10.9517C62.0851 11.0422 61.8643 11.0888 61.6411 11.0888C61.4179 11.0888 61.1972 11.0422 60.9931 10.9517C60.789 10.8613 60.6061 10.7293 60.4561 10.564C60.3061 10.3986 60.1924 10.2038 60.1222 9.99188C60.052 9.78 60.0268 9.55575 60.0485 9.3336ZM62.5483 9.3336C62.5483 8.60153 62.2194 8.17342 61.6423 8.17342C61.0629 8.17342 60.737 8.60153 60.737 9.3336C60.737 10.0715 61.063 10.4963 61.6423 10.4963C62.2194 10.4963 62.5483 10.0686 62.5483 9.3336ZM64.1281 7.64617H64.7697V8.18265H64.8195C64.9039 7.98998 65.0464 7.82842 65.2271 7.72057C65.4078 7.61272 65.6176 7.5639 65.8273 7.58092C65.9916 7.56862 66.1566 7.59338 66.31 7.65345C66.4635 7.71353 66.6015 7.80735 66.7138 7.92802C66.826 8.04862 66.9097 8.193 66.9586 8.35035C67.0075 8.5077 67.0204 8.67405 66.9962 8.83702V11.0233H66.3298V9.00443C66.3298 8.46173 66.0939 8.1918 65.601 8.1918C65.4894 8.18663 65.378 8.2056 65.2745 8.24745C65.1709 8.28938 65.0777 8.35313 65.0011 8.43443C64.9245 8.51573 64.8664 8.61255 64.8307 8.71845C64.7951 8.82428 64.7827 8.93655 64.7946 9.04763V11.0233H64.1281V7.64617ZM70.7623 6.80566V7.66185H71.494V8.2233H70.7623V9.95985C70.7623 10.3136 70.9081 10.4685 71.2399 10.4685C71.3248 10.4682 71.4097 10.4631 71.494 10.4531V11.0083C71.3743 11.0297 71.2531 11.0411 71.1315 11.0423C70.3903 11.0423 70.0951 10.7816 70.0951 10.1305V8.22323H69.559V7.66185H70.0951V6.80566H70.7623ZM72.4045 6.32812H73.0651V8.18925H73.1178C73.2064 7.9947 73.3528 7.83225 73.5371 7.72403C73.7214 7.61573 73.9345 7.56697 74.1475 7.58422C74.311 7.5753 74.4745 7.6026 74.6262 7.66417C74.7778 7.72567 74.9141 7.81995 75.0252 7.94017C75.1363 8.06047 75.2195 8.20372 75.2688 8.35987C75.3181 8.51595 75.3325 8.68103 75.3106 8.84325V11.0237H74.6434V9.00772C74.6434 8.46825 74.3922 8.1951 73.9213 8.1951C73.8067 8.18565 73.6915 8.2014 73.5837 8.24123C73.4758 8.28098 73.378 8.3439 73.297 8.42543C73.216 8.50695 73.1539 8.60527 73.1148 8.71335C73.0757 8.82142 73.0608 8.93678 73.071 9.05123V11.0237H72.4045V6.32812ZM79.1968 10.1119C79.106 10.4205 78.9103 10.6875 78.6425 10.8662C78.3748 11.0447 78.053 11.1236 77.7335 11.0889C77.5108 11.0948 77.2895 11.0522 77.0855 10.964C76.8808 10.8759 76.6985 10.7443 76.55 10.5784C76.4015 10.4126 76.2913 10.2164 76.226 10.0036C76.1608 9.79073 76.1428 9.56625 76.1735 9.34575C76.1435 9.12458 76.1623 8.89965 76.2268 8.68613C76.292 8.47268 76.4015 8.27557 76.5493 8.10825C76.697 7.94092 76.8793 7.80735 77.0825 7.71645C77.2865 7.62555 77.5078 7.57942 77.7305 7.58137C78.6703 7.58137 79.2373 8.22337 79.2373 9.28387V9.51645H76.8523V9.5538C76.8418 9.6777 76.8575 9.80242 76.898 9.92002C76.9385 10.0375 77.0038 10.1453 77.0878 10.2364C77.1725 10.3276 77.2753 10.4 77.39 10.449C77.504 10.4981 77.6278 10.5227 77.7515 10.5213C77.9113 10.5404 78.0725 10.5117 78.2158 10.4388C78.359 10.3659 78.4768 10.2521 78.5555 10.1119H79.1968ZM76.8523 9.02347H78.5585C78.5668 8.91015 78.551 8.7963 78.5128 8.68928C78.4745 8.58225 78.4145 8.48437 78.3365 8.40195C78.2578 8.3196 78.1633 8.2545 78.0583 8.21085C77.9533 8.1672 77.8408 8.14605 77.7268 8.1486C77.6113 8.14718 77.4973 8.16885 77.3908 8.21228C77.2835 8.2557 77.1868 8.32012 77.105 8.40165C77.0233 8.48317 76.9595 8.58022 76.916 8.68702C76.8725 8.79382 76.8508 8.9082 76.8523 9.02347Z" fill="white"/>
</g>
</g>
<defs>
<clipPath id="clip0_2005_1617">
<rect width="90" height="30" fill="white" transform="translate(0.5)"/>
</clipPath>
</defs>
</svg>
