<svg width="94" height="28" viewBox="0 0 94 28" fill="none" xmlns="http://www.w3.org/2000/svg">
<g clip-path="url(#clip0_2009_1688)">
<path fill-rule="evenodd" clip-rule="evenodd" d="M90.0357 27.5H3.46424C1.55495 27.5 0 25.9501 0 24.0625V3.4375C0 1.54302 1.55495 0 3.46424 0H90.0357C91.9435 0 93.5 1.54302 93.5 3.4375V24.0625C93.5 25.9501 91.9435 27.5 90.0357 27.5Z" fill="black"/>
<path fill-rule="evenodd" clip-rule="evenodd" d="M90.0357 0.550343C91.6369 0.550343 92.9479 1.84819 92.9479 3.4375V24.0625C92.9479 25.6518 91.6458 26.9497 90.0357 26.9497H3.46424C1.86284 26.9497 0.552145 25.6518 0.552145 24.0625V3.4375C0.552145 1.84819 1.85424 0.550343 3.46424 0.550343H90.0357ZM90.0357 0H3.46424C1.55495 0 0 1.54987 0 3.4375V24.0625C0 25.957 1.55495 27.5 3.46424 27.5H90.0357C91.9435 27.5 93.5 25.957 93.5 24.0625V3.4375C93.5 1.54987 91.9435 0 90.0357 0Z" fill="#A6A6A6"/>
<path d="M49.256 9.097C48.6316 9.097 48.1053 8.87927 47.689 8.45062C47.4839 8.24258 47.3224 7.99604 47.2137 7.7253C47.105 7.4545 47.0515 7.16492 47.056 6.87332C47.056 6.24754 47.2693 5.71777 47.689 5.29773C48.1036 4.86911 48.6299 4.65137 49.2543 4.65137C49.8718 4.65137 50.3982 4.86911 50.8212 5.29773C51.241 5.73148 51.4542 6.26125 51.4542 6.87332C51.4473 7.50083 51.2341 8.03055 50.8212 8.4489C50.4067 8.88092 49.8804 9.097 49.256 9.097ZM30.6776 9.097C30.0669 9.097 29.5371 8.88264 29.1037 8.45921C28.6736 8.03743 28.4552 7.50427 28.4552 6.875C28.4552 6.24582 28.6736 5.71263 29.1037 5.29087C29.5285 4.86739 30.0583 4.65309 30.6776 4.65309C30.9803 4.65309 31.2744 4.71309 31.5565 4.83482C31.8335 4.95312 32.0587 5.11427 32.2256 5.31144L32.2669 5.36116L31.8007 5.81721L31.7526 5.76063C31.4894 5.4486 31.1368 5.29601 30.6707 5.29601C30.2544 5.29601 29.8915 5.44346 29.5922 5.73492C29.2911 6.02809 29.1381 6.41212 29.1381 6.87672C29.1381 7.34133 29.2911 7.72537 29.5922 8.01859C29.8915 8.31002 30.2544 8.45749 30.6707 8.45749C31.1145 8.45749 31.4877 8.31002 31.7784 8.01859C31.9504 7.84713 32.057 7.60712 32.0949 7.30366H30.6001V6.66244H32.7365L32.7451 6.72073C32.7605 6.82874 32.776 6.94018 32.776 7.04303C32.776 7.63455 32.5971 8.11285 32.2428 8.46608C31.8403 8.88436 31.314 9.097 30.6776 9.097ZM55.3794 9.00612H54.7207L52.703 5.78806L52.7202 6.36755V9.0044H52.0614V4.74395H52.8131L52.8338 4.77653L54.731 7.80767L54.7138 7.22989V4.74395H55.3794V9.00612ZM44.3057 9.00612H43.6382V5.38516H42.4806V4.74395H45.4615V5.38516H44.3039V9.00612H44.3057ZM41.9371 9.00612H41.2715V4.74395H41.9371V9.00612ZM38.196 9.00612H37.5303V5.38516H36.3727V4.74395H39.3535V5.38516H38.196V9.00612ZM35.9513 8.99924H33.3987V4.74395H35.9513V5.38516H34.0661V6.55443H35.7672V7.18878H34.0661V8.35801H35.9513V8.99924ZM48.1775 8.01C48.4751 8.30658 48.8363 8.45577 49.256 8.45577C49.6878 8.45577 50.0404 8.31002 50.3345 8.01C50.6269 7.71857 50.7748 7.33625 50.7748 6.875C50.7748 6.41384 50.6269 6.0298 50.3362 5.74006C50.0386 5.44345 49.6757 5.2943 49.2577 5.2943C48.826 5.2943 48.4734 5.44003 48.181 5.74006C47.8886 6.03152 47.7406 6.41384 47.7406 6.875C47.7406 7.33625 47.8868 7.72028 48.1775 8.01Z" fill="white"/>
<path fill-rule="evenodd" clip-rule="evenodd" d="M46.9942 14.9569C45.3687 14.9569 44.0511 16.1861 44.0511 17.8818C44.0511 19.5619 45.3773 20.8066 46.9942 20.8066C48.6197 20.8066 49.9372 19.5687 49.9372 17.8818C49.9372 16.1861 48.6197 14.9569 46.9942 14.9569ZM46.9942 19.6477C46.1049 19.6477 45.3395 18.9138 45.3395 17.8749C45.3395 16.8205 46.1066 16.1022 46.9942 16.1022C47.8835 16.1022 48.6489 16.8205 48.6489 17.8749C48.6507 18.9207 47.8835 19.6477 46.9942 19.6477ZM40.5732 14.9569C38.9477 14.9569 37.6301 16.1861 37.6301 17.8818C37.6301 19.5619 38.9563 20.8066 40.5732 20.8066C42.1986 20.8066 43.5162 19.5687 43.5162 17.8818C43.5162 16.1861 42.1969 14.9569 40.5732 14.9569ZM40.5732 19.6477C39.6839 19.6477 38.9184 18.9138 38.9184 17.8749C38.9184 16.8205 39.6856 16.1022 40.5732 16.1022C41.4624 16.1022 42.2279 16.8205 42.2279 17.8749C42.2279 18.9207 41.4624 19.6477 40.5732 19.6477ZM32.9326 15.8501V17.088H35.9135C35.8223 17.7823 35.5918 18.2949 35.2392 18.6464C34.8023 19.0819 34.128 19.5551 32.9394 19.5551C31.1076 19.5551 29.6747 18.0806 29.6747 16.2547C29.6747 14.4288 31.1076 12.9544 32.9394 12.9544C33.9285 12.9544 34.6492 13.3436 35.1841 13.8408L36.0648 12.963C35.3218 12.2531 34.3327 11.7097 32.9463 11.7097C30.4333 11.7097 28.3244 13.7499 28.3244 16.2478C28.3244 18.7527 30.4316 20.786 32.9463 20.786C34.3034 20.786 35.3218 20.3437 36.1267 19.5105C36.9472 18.6927 37.2069 17.5388 37.2069 16.6079C37.2069 16.3182 37.1846 16.0575 37.1381 15.8364H32.9308C32.9326 15.8347 32.9326 15.8501 32.9326 15.8501ZM64.1847 16.8137C63.9387 16.157 63.1957 14.95 61.6716 14.95C60.1614 14.95 58.9058 16.1347 58.9058 17.8749C58.9058 19.5173 60.1477 20.7998 61.8179 20.7998C63.1595 20.7998 63.9405 19.9819 64.2621 19.5019L63.2662 18.8367C62.9359 19.3253 62.4766 19.6459 61.8247 19.6459C61.166 19.6459 60.705 19.3476 60.3988 18.7596L64.3223 17.1394C64.3223 17.1411 64.1847 16.8137 64.1847 16.8137ZM60.1838 17.7909C60.1528 16.661 61.0645 16.0867 61.7164 16.0867C62.2307 16.0867 62.659 16.3387 62.8052 16.7057L60.1838 17.7909ZM56.9965 20.6249H58.2848V12.032H56.9965V20.6249ZM54.8808 15.6067H54.8343C54.5436 15.262 53.9915 14.95 53.2863 14.95C51.8225 14.95 50.4739 16.2342 50.4739 17.8835C50.4739 19.5259 51.8156 20.7946 53.2863 20.7946C53.9829 20.7946 54.5436 20.4808 54.8343 20.1294H54.8808V20.5495C54.8808 21.6655 54.2822 22.2673 53.3172 22.2673C52.5277 22.2673 52.0375 21.7016 51.838 21.2284L50.7182 21.6947C51.0399 22.4662 51.8981 23.4211 53.3155 23.4211C54.8257 23.4211 56.1055 22.5348 56.1055 20.3728V15.1249H54.8877V15.6067H54.8808ZM53.4015 19.6477C52.5122 19.6477 51.7692 18.907 51.7692 17.8835C51.7692 16.8513 52.5122 16.1038 53.4015 16.1038C54.2822 16.1038 54.9651 16.8599 54.9651 17.8835C54.9737 18.907 54.2839 19.6477 53.4015 19.6477ZM70.2171 12.032H67.1364V20.6249H68.4247V17.3708H70.2185C71.6444 17.3708 73.0469 16.3404 73.0469 14.7048C73.0469 13.0693 71.6499 12.032 70.2171 12.032ZM70.2549 16.1707H68.423V13.2218H70.2549C71.2195 13.2218 71.7654 14.0156 71.7654 14.6963C71.7654 15.37 71.2126 16.1707 70.2549 16.1707ZM78.21 14.9415C77.2743 14.9415 76.3098 15.3546 75.9103 16.2547L77.0529 16.7279C77.2984 16.2547 77.7494 16.0936 78.2258 16.0936C78.8934 16.0936 79.5671 16.4913 79.5829 17.2011V17.2919C79.3526 17.1617 78.8466 16.9628 78.2409 16.9628C77.0083 16.9628 75.7577 17.6349 75.7577 18.895C75.7577 20.0488 76.769 20.7895 77.8951 20.7895C78.7607 20.7895 79.2371 20.4003 79.5348 19.9494H79.5809V20.6146H80.8232V17.3228C80.8232 15.7901 79.6813 14.9415 78.21 14.9415ZM78.0484 19.6477C77.627 19.6477 77.0371 19.4419 77.0371 18.9138C77.0371 18.2486 77.7734 17.9966 78.4011 17.9966C78.969 17.9966 79.2371 18.1183 79.574 18.2864C79.4812 19.0579 78.8281 19.6408 78.0484 19.6477ZM85.3538 15.1249L83.8743 18.8522H83.8282L82.2951 15.1249H80.9091L83.2088 20.3352L81.8978 23.2308H83.2397L86.7776 15.1249H85.3538ZM73.7571 20.6249H75.0454V12.032H73.7571V20.6249Z" fill="white"/>
<path fill-rule="evenodd" clip-rule="evenodd" d="M7.19683 5.17971C6.99732 5.39402 6.8821 5.72148 6.8821 6.1501V21.3522C6.8821 21.7808 6.99732 22.1083 7.20371 22.314L7.25706 22.3603L15.8024 13.8429V13.6526L7.25018 5.13342L7.19683 5.17971Z" fill="url(#paint0_linear_2009_1688)"/>
<path fill-rule="evenodd" clip-rule="evenodd" d="M18.6457 16.6906L15.7955 13.8498V13.6509L18.6457 10.81L18.7076 10.8477L22.0789 12.7577C23.0439 13.2994 23.0439 14.1944 22.0789 14.743L18.7076 16.6529L18.6457 16.6906Z" fill="url(#paint1_linear_2009_1688)"/>
<path fill-rule="evenodd" clip-rule="evenodd" d="M18.7075 16.6526L15.7954 13.75L7.19674 22.3206C7.51155 22.6566 8.03961 22.6944 8.62956 22.3669L18.7075 16.6526Z" fill="url(#paint2_linear_2009_1688)"/>
<path fill-rule="evenodd" clip-rule="evenodd" d="M18.7075 10.8477L8.62956 5.14194C8.03961 4.8059 7.50983 4.8522 7.19674 5.18823L15.7954 13.7503L18.7075 10.8477Z" fill="url(#paint3_linear_2009_1688)"/>
<path opacity="0.2" fill-rule="evenodd" clip-rule="evenodd" d="M18.6456 16.5906L8.63644 22.2587C8.07743 22.5794 7.57858 22.557 7.25697 22.2656L7.20362 22.3188L7.25697 22.365C7.57858 22.6548 8.07743 22.6788 8.63644 22.3582L18.7144 16.6524L18.6456 16.5906Z" fill="black"/>
<path opacity="0.12" fill-rule="evenodd" clip-rule="evenodd" d="M22.0789 14.6433L18.637 16.5909L18.699 16.6526L22.0703 14.7427C22.5536 14.4684 22.791 14.1083 22.791 13.75C22.7617 14.0792 22.5158 14.3912 22.0789 14.6433Z" fill="black"/>
<path opacity="0.25" fill-rule="evenodd" clip-rule="evenodd" d="M8.62965 5.24102L22.079 12.8567C22.5159 13.1018 22.7618 13.4225 22.7997 13.7499C22.7997 13.3916 22.5623 13.0316 22.079 12.7572L8.62965 5.14158C7.66468 4.59123 6.8821 5.05071 6.8821 6.14968V6.24912C6.8821 5.14843 7.66468 4.69753 8.62965 5.24102Z" fill="white"/>
</g>
<defs>
<linearGradient id="paint0_linear_2009_1688" x1="15.0363" y1="5.98544" x2="1.35242" y2="9.64397" gradientUnits="userSpaceOnUse">
<stop stop-color="#00A0FF"/>
<stop offset="0.01" stop-color="#00A1FF"/>
<stop offset="0.26" stop-color="#00BEFF"/>
<stop offset="0.51" stop-color="#00D2FF"/>
<stop offset="0.76" stop-color="#00DFFF"/>
<stop offset="1" stop-color="#00E3FF"/>
</linearGradient>
<linearGradient id="paint1_linear_2009_1688" x1="23.3369" y1="13.75" x2="6.6474" y2="13.75" gradientUnits="userSpaceOnUse">
<stop stop-color="#FFE000"/>
<stop offset="0.41" stop-color="#FFBD00"/>
<stop offset="0.78" stop-color="#FFA500"/>
<stop offset="1" stop-color="#FF9C00"/>
</linearGradient>
<linearGradient id="paint2_linear_2009_1688" x1="17.1236" y1="15.329" x2="6.1879" y2="33.796" gradientUnits="userSpaceOnUse">
<stop stop-color="#FF3A44"/>
<stop offset="1" stop-color="#C31162"/>
</linearGradient>
<linearGradient id="paint3_linear_2009_1688" x1="5.0326" y1="0.122839" x2="9.91113" y2="8.37045" gradientUnits="userSpaceOnUse">
<stop stop-color="#32A071"/>
<stop offset="0.07" stop-color="#2DA771"/>
<stop offset="0.48" stop-color="#15CF74"/>
<stop offset="0.8" stop-color="#06E775"/>
<stop offset="1" stop-color="#00F076"/>
</linearGradient>
<clipPath id="clip0_2009_1688">
<rect width="93.5" height="27.5" fill="white"/>
</clipPath>
</defs>
</svg>
