<svg width="155" height="24" viewBox="0 0 155 24" fill="none" xmlns="http://www.w3.org/2000/svg">
<path d="M7.19303 9.05188C7.19303 7.84031 8.17777 6.57786 10.2225 6.57786C11.1065 6.57786 11.8634 6.83013 12.5704 7.28488C11.6874 7.73963 11.0811 8.67347 11.0811 9.73345C11.0811 11.2736 12.3181 12.5106 13.8583 12.5106C15.3985 12.5106 16.6355 11.2736 16.6355 9.73345C16.6355 6.80468 12.8238 5.06313 8.86045 5.06313C2.82698 5.06313 0.681573 7.84031 0.681573 10.3641C0.681573 15.5899 10.4515 16.5492 10.4515 20.1086C10.4515 21.2195 9.54202 22.4311 7.24503 22.4311C5.80665 22.4311 4.61943 21.9011 3.73648 21.1941C4.79646 20.7902 5.55438 19.78 5.55438 18.5939C5.55438 17.0537 4.31737 15.8167 2.77719 15.8167C1.23701 15.8167 0 17.0537 0 18.5939C0 21.3711 2.92877 23.9967 8.55839 23.9967C15.0212 23.9967 16.9641 21.0934 16.9641 18.418C16.963 13.0152 7.19303 12.712 7.19303 9.05188Z" fill="#F1C43B"/>
<path d="M69.0336 9.05189C69.0336 7.84033 70.0183 6.57787 72.0631 6.57787C72.9471 6.57787 73.7039 6.83014 74.411 7.28489C73.528 7.73964 72.9217 8.67349 72.9217 9.73346C72.9217 11.2736 74.1587 12.5107 75.6989 12.5107C77.239 12.5107 78.4761 11.2736 78.4761 9.73346C78.4761 6.80469 74.6643 5.06314 70.701 5.06314C64.6676 5.06314 62.5222 7.84033 62.5222 10.3641C62.5222 15.5899 72.2921 16.5492 72.2921 20.1086C72.2921 21.2195 71.3826 22.4311 69.0856 22.4311C67.6472 22.4311 66.46 21.9011 65.5771 21.1941C66.637 20.7902 67.395 19.78 67.395 18.5939C67.395 17.0537 66.1579 15.8167 64.6178 15.8167C63.0776 15.8167 61.8406 17.0537 61.8406 18.5939C61.8406 19.3773 62.074 20.1485 62.5343 20.8522C62.4126 20.8489 62.3042 20.871 62.2367 20.9263C61.1004 21.8602 60.6135 21.6986 60.6135 21.2195V15.8178C60.6135 13.9999 59.0988 11.6266 55.1864 11.6266C53.6971 11.6266 52.3583 12.0305 51.3747 12.6622C50.7429 12.1831 49.8854 11.88 48.8498 11.88C48.395 11.88 47.6127 11.9054 47.6127 12.5361V20.0843C47.6127 20.2824 47.6316 20.4815 47.667 20.6796C46.7265 21.4143 45.807 21.8214 45.807 21.297V15.8189C45.807 14.001 44.2923 11.6277 40.3799 11.6277C38.8906 11.6277 37.5518 12.0316 36.5682 12.6633C35.9364 12.1842 35.0789 11.8811 34.0432 11.8811C33.5885 11.8811 32.8062 11.9065 32.8062 12.5372V20.0854C32.8062 20.299 32.8273 20.5147 32.8682 20.7283C31.9421 21.4331 31.0625 21.8104 31.0625 21.297V15.5412C31.0625 13.7742 29.6484 11.88 27.0737 11.88C26.5946 11.88 25.8113 11.9054 25.8113 12.5361V22.4322C24.624 22.9876 23.3118 22.6336 23.3118 20.1098V15.5401C23.3118 13.7731 21.8977 11.8789 19.323 11.8789C18.8439 11.8789 18.0606 11.9043 18.0606 12.535V19.8055C18.0606 21.6234 19.5753 23.9956 23.4877 23.9956C24.8763 23.9956 26.1631 23.6415 27.1224 23.0618C27.7785 23.6426 28.6626 23.9956 29.6219 23.9956C31.1764 23.9956 32.5274 23.1857 33.5332 22.2242C34.1959 23.1049 35.298 23.7422 36.7928 23.7422C37.2719 23.7422 38.0552 23.7168 38.0552 23.0861V13.19C39.2425 12.6346 40.5547 12.9886 40.5547 15.5125V20.3344C40.5547 22.2784 42.1956 23.9956 44.3664 23.9956C45.9276 23.9956 47.2963 23.1636 48.3109 22.1854C48.9704 23.0861 50.0834 23.7433 51.6004 23.7433C52.0795 23.7433 52.8628 23.7179 52.8628 23.0872V13.1911C54.0501 12.6357 55.3623 12.9897 55.3623 15.5136V20.3355C55.3623 22.2795 57.0032 23.9967 59.174 23.9967C60.5914 23.9967 62.4126 22.6789 63.1373 21.599C64.5049 23.0064 66.9402 23.9967 70.3979 23.9967C76.8606 23.9967 78.8036 21.0934 78.8036 18.418C78.8024 13.0152 69.0336 12.712 69.0336 9.05189Z" fill="#F1C43B"/>
<path d="M154.302 8.32271L147.671 7.52939L150.467 3.94449L146.904 6.74602L146.071 0L145.257 6.81241L141.529 3.90466L144.366 7.51169C141.757 7.59578 130.942 7.68208 120.448 7.76617C112.599 7.82924 105.029 7.88898 100.414 7.95095C100.229 6.8799 99.305 6.0733 98.1775 6.0733C94.6435 6.0733 92.9517 9.78433 92.2458 13.1668C91.5643 12.4099 90.5297 11.8788 89.1655 11.8788C88.6864 11.8788 87.903 11.9043 87.903 12.535V20.0832C87.903 20.1252 87.9041 20.1673 87.9063 20.2082C86.7988 21.2162 85.481 21.9232 85.481 21.2947V13.2165H87.0964C87.248 13.2165 87.2734 13.0152 87.2734 12.889C87.2734 12.3081 86.7943 11.8788 86.5166 11.8788H85.481V6.72943C85.481 6.09764 84.6987 6.0733 84.244 6.0733C81.6438 6.0733 80.2298 7.96644 80.2298 9.73454V11.8799H79.1444C78.9928 11.8799 78.9928 12.0813 78.9928 12.2086C78.9928 12.7895 79.4464 13.2176 79.7241 13.2176H80.2298V20.3365C80.2298 22.2806 81.8961 23.9978 84.0415 23.9978C85.814 23.9978 87.3232 22.9444 88.3644 21.8137C88.9752 22.9002 90.1812 23.7444 91.9172 23.7444C92.372 23.7444 93.1542 23.719 93.1542 23.0883V17.0294C93.1542 14.2843 93.8668 10.4858 95.6415 8.58494L95.9148 8.6469C95.9192 8.64801 95.927 8.64801 95.9325 8.64912C96.0896 9.75667 97.0279 10.6175 98.1786 10.6175C99.3028 10.6175 100.224 9.81531 100.414 8.7487C105.039 8.80955 112.629 8.8693 120.501 8.93126C131.014 9.01424 141.849 9.09944 144.463 9.18242L141.606 12.8437L145.303 9.93592L146.106 16.4297L146.876 9.99456L150.431 12.7673L147.587 9.15144L154.302 8.32271Z" fill="#F1C43B"/>
<path d="M144.77 19.4282C143.634 20.7914 141.589 22.0782 141.589 21.2959V15.8179C141.589 14 140.074 11.6266 136.162 11.6266C134.622 11.6266 133.233 12.0559 132.25 12.7375C131.391 12.0814 130.13 11.6266 128.412 11.6266C127.024 11.6266 125.761 11.9807 124.802 12.5605C124.146 11.9796 123.262 11.6266 122.277 11.6266C120.35 11.6266 118.48 13.3162 117.605 14.6727C116.87 12.9256 115.079 11.6266 112.28 11.6266C109.478 11.6266 106.6 12.94 106.6 14.9847C106.6 16.0956 107.509 17.004 108.619 17.004C109.73 17.004 110.639 16.0956 110.639 14.9847C110.639 14.2777 110.285 13.647 109.706 13.2929C110.109 13.0916 110.513 12.9654 110.943 12.9654C111.876 12.9654 112.735 13.47 112.735 14.6063C112.735 17.0261 108.212 17.1489 106.704 19.3585C106.675 19.3696 106.648 19.384 106.627 19.4028C105.718 20.1596 104.053 21.0436 102.286 21.0436C101.149 21.0436 100.367 20.5136 99.8881 19.6805C103.7 19.4537 105.669 17.4842 105.669 15.3642C105.669 13.4711 103.498 11.6277 100.544 11.6277C96.7325 11.6277 94.233 14.6074 94.233 17.8128C94.233 21.1189 96.8586 23.9978 100.493 23.9978C103.112 23.9978 105.084 22.6967 106.288 21.5437C106.606 22.9213 108.053 23.9978 110.009 23.9978C111.397 23.9978 112.761 23.5188 113.82 22.8615C114.502 23.5431 115.461 23.9978 116.572 23.9978C118.486 23.9978 120.11 22.7487 121.147 21.5105C121.694 22.7398 122.958 23.7456 124.853 23.7456C125.308 23.7456 126.09 23.7201 126.09 23.0895V13.1934C127.277 12.6379 128.589 12.992 128.589 15.5158V20.0854C128.589 21.8524 130.003 23.7467 132.604 23.7467C133.057 23.7467 133.841 23.7212 133.841 23.0906V13.1945C135.027 12.639 136.34 12.9931 136.34 15.5169V20.3388C136.34 22.2829 138.006 24.0001 140.177 24.0001C143.005 24.0001 145.2 21.2738 145.807 19.8852C145.957 19.5289 144.973 19.1505 144.77 19.4282ZM99.2806 16.8778C99.2806 15.2115 99.8615 12.9898 100.695 12.9898C101.351 12.9898 101.983 13.8484 101.983 15.0091C101.983 16.1963 101.226 17.8117 99.4079 18.2653C99.3315 17.8117 99.2806 17.358 99.2806 16.8778ZM112.735 21.9775C112.735 22.2054 112.432 22.4322 112.103 22.4322C111.245 22.4322 110.462 21.5736 110.462 20.4882C110.462 19.0741 111.749 18.3173 112.734 17.2308L112.735 21.9775ZM120.839 19.7933C119.678 21.006 117.985 22.0073 117.985 21.2959V16.6001C117.985 16.3534 117.967 16.11 117.934 15.8699C118.081 15.8843 118.214 15.8566 118.289 15.767C118.971 15.0102 120.233 14.1007 120.663 14.1007C120.789 14.1007 120.84 14.1759 120.84 14.3529L120.839 19.7933Z" fill="#F1C43B"/>
</svg>
